<svg width="29" height="28" viewBox="0 0 29 28" fill="none" xmlns="http://www.w3.org/2000/svg">
<g clip-path="url(#clip0_4709_84550)">
<path d="M2.65387 8.16666H25.9871C25.9862 7.01358 25.9715 6.40917 25.7328 5.94068C25.5091 5.50163 25.1522 5.14468 24.7131 4.92097C24.214 4.66666 23.5606 4.66666 22.2538 4.66666H6.38714C5.08035 4.66666 4.42696 4.66666 3.92783 4.92097C3.48879 5.14468 3.13183 5.50163 2.90813 5.94068C2.66942 6.40917 2.65477 7.01358 2.65387 8.16666Z" fill="#437EF7"/>
<path fill-rule="evenodd" clip-rule="evenodd" d="M25.9871 10.5H2.65381V19.6C2.65381 20.9068 2.65381 21.5602 2.90813 22.0593C3.13183 22.4983 3.48879 22.8553 3.92783 23.079C4.42696 23.3333 5.08035 23.3333 6.38714 23.3333H22.2538C23.5606 23.3333 24.214 23.3333 24.7131 23.079C25.1522 22.8553 25.5091 22.4983 25.7328 22.0593C25.9871 21.5602 25.9871 20.9068 25.9871 19.6V10.5ZM6.15381 18.6667C6.15381 18.0223 6.67614 17.5 7.32048 17.5H11.9871C12.6315 17.5 13.1538 18.0223 13.1538 18.6667C13.1538 19.311 12.6315 19.8333 11.9871 19.8333H7.32048C6.67614 19.8333 6.15381 19.311 6.15381 18.6667ZM16.6538 17.5C16.0095 17.5 15.4871 18.0223 15.4871 18.6667C15.4871 19.311 16.0095 19.8333 16.6538 19.8333H21.3205C21.9648 19.8333 22.4871 19.311 22.4871 18.6667C22.4871 18.0223 21.9648 17.5 21.3205 17.5H16.6538Z" fill="#437EF7"/>
</g>
<defs>
<clipPath id="clip0_4709_84550">
<rect width="28" height="28" fill="white" transform="translate(0.320312)"/>
</clipPath>
</defs>
</svg>
