<svg width="25" height="24" viewBox="0 0 25 24" fill="none" xmlns="http://www.w3.org/2000/svg">
<g id="Social platforms logo">
<path id="Logo" d="M22.184 18.7033C21.8211 19.5418 21.3915 20.3136 20.8937 21.0232C20.2152 21.9906 19.6597 22.6602 19.2315 23.032C18.5679 23.6424 17.8568 23.955 17.0953 23.9728C16.5487 23.9728 15.8894 23.8172 15.122 23.5017C14.3521 23.1876 13.6446 23.032 12.9977 23.032C12.3192 23.032 11.5915 23.1876 10.8132 23.5017C10.0336 23.8172 9.40564 23.9816 8.92551 23.9979C8.19531 24.0291 7.46748 23.7076 6.74099 23.032C6.2773 22.6276 5.69732 21.9343 5.00252 20.9521C4.25707 19.9033 3.6442 18.687 3.16406 17.3004C2.64986 15.8026 2.39209 14.3523 2.39209 12.9482C2.39209 11.3398 2.73963 9.95259 3.43576 8.79011C3.98285 7.85636 4.71068 7.11979 5.62162 6.57906C6.53255 6.03834 7.51681 5.76279 8.57678 5.74516C9.15676 5.74516 9.91733 5.92456 10.8625 6.27715C11.805 6.63091 12.4101 6.81031 12.6755 6.81031C12.8738 6.81031 13.5461 6.60054 14.6858 6.18233C15.7635 5.79449 16.6731 5.63391 17.4183 5.69716C19.4375 5.86012 20.9545 6.6561 21.9633 8.09013C20.1574 9.18432 19.2641 10.7169 19.2819 12.6829C19.2982 14.2142 19.8537 15.4886 20.9456 16.5004C21.4404 16.97 21.9929 17.333 22.6077 17.5907C22.4744 17.9774 22.3337 18.3477 22.184 18.7033V18.7033ZM17.5531 0.480137C17.5531 1.68041 17.1146 2.8011 16.2405 3.8384C15.1858 5.07155 13.9099 5.78412 12.5264 5.67168C12.5088 5.52769 12.4986 5.37614 12.4986 5.21688C12.4986 4.06462 13.0002 2.83147 13.891 1.82321C14.3357 1.3127 14.9013 0.888228 15.5872 0.549615C16.2716 0.216055 16.919 0.031589 17.5279 0C17.5457 0.160458 17.5531 0.320926 17.5531 0.480121V0.480137Z" fill="#272D37"/>
</g>
</svg>
