<svg width="161" height="40" viewBox="0 0 161 40" fill="none" xmlns="http://www.w3.org/2000/svg">
<g id="Company Logo">
<g id="Lookscout">
<path d="M41.821 11.5664H45.3702V25.0891H51.9481V28.1412H41.821V11.5664Z" fill="#2E343F"/>
<path d="M53.5459 25.3259C53.0025 24.3247 52.7289 23.1993 52.752 22.0603C52.7289 20.9214 53.0025 19.796 53.5459 18.7947C54.0625 17.8592 54.8449 17.0977 55.7941 16.6065C56.846 16.0994 57.9987 15.836 59.1664 15.836C60.3342 15.836 61.4869 16.0994 62.5388 16.6065C63.4866 17.0997 64.2684 17.8606 64.787 18.7947C65.3278 19.7968 65.6001 20.9218 65.5775 22.0603C65.6029 23.2034 65.3304 24.3334 64.787 25.3393C64.2649 26.2673 63.4837 27.0231 62.5388 27.5141C61.4869 28.0212 60.3342 28.2846 59.1664 28.2846C57.9987 28.2846 56.846 28.0212 55.7941 27.5141C54.8449 27.0229 54.0625 26.2615 53.5459 25.3259ZM62.1952 22.0603C62.2328 21.1439 61.9378 20.2447 61.3646 19.5286C61.0948 19.2127 60.7567 18.9624 60.3759 18.7966C59.995 18.6307 59.5814 18.5536 59.1664 18.5712C58.7517 18.5546 58.3387 18.6334 57.9593 18.8017C57.5799 18.97 57.2442 19.2233 56.9782 19.5419C56.4085 20.2592 56.1182 21.1587 56.161 22.0737C56.1182 22.9887 56.4085 23.8882 56.9782 24.6054C57.2442 24.9241 57.5799 25.1773 57.9593 25.3456C58.3387 25.5139 58.7517 25.5928 59.1664 25.5761C59.5836 25.5905 59.9985 25.5093 60.3795 25.3387C60.7605 25.1682 61.0974 24.9128 61.3646 24.5921C61.9378 23.876 62.2328 22.9768 62.1952 22.0603Z" fill="#2E343F"/>
<path d="M67.7424 25.3259C67.199 24.3247 66.9254 23.1993 66.9485 22.0603C66.9254 20.9214 67.199 19.796 67.7424 18.7947C68.259 17.8592 69.0414 17.0977 69.9906 16.6065C71.0419 16.0995 72.1941 15.8361 73.3613 15.8361C74.5285 15.8361 75.6806 16.0995 76.7319 16.6065C77.6811 17.0977 78.4635 17.8592 78.9802 18.7947C79.5235 19.796 79.7971 20.9214 79.7741 22.0603C79.7999 23.2038 79.5262 24.3342 78.9802 25.3393C78.46 26.2688 77.6782 27.0251 76.7319 27.5141C75.6806 28.0212 74.5285 28.2845 73.3613 28.2845C72.1941 28.2845 71.0419 28.0212 69.9906 27.5141C69.0414 27.0229 68.259 26.2615 67.7424 25.3259ZM76.3917 22.0603C76.433 21.1455 76.1428 20.2466 75.5745 19.5286C75.2951 19.2228 74.955 18.9785 74.5759 18.8114C74.1969 18.6443 73.7872 18.558 73.3729 18.558C72.9587 18.558 72.549 18.6443 72.1699 18.8114C71.7909 18.9785 71.4508 19.2228 71.1714 19.5286C70.609 20.2489 70.3248 21.1476 70.3709 22.0603C70.3286 22.9747 70.6176 23.8736 71.1848 24.5921C71.4642 24.8979 71.8042 25.1422 72.1833 25.3093C72.5623 25.4764 72.972 25.5627 73.3863 25.5627C73.8005 25.5627 74.2102 25.4764 74.5893 25.3093C74.9683 25.1422 75.3084 24.8979 75.5878 24.5921C76.1514 23.8723 76.4368 22.9735 76.3917 22.0603Z" fill="#2E343F"/>
<path d="M84.9543 11.5664V21.1597L89.7343 15.9794H93.4736L89.1372 20.7361L93.7204 28.1412H89.8544L86.7789 23.2211L84.9543 25.1825V28.1412H81.6187V11.5664H84.9543Z" fill="#2E343F"/>
<path d="M97.8266 25.396C98.3651 25.7533 99.002 25.933 99.6479 25.9097C100.223 25.9393 100.796 25.8246 101.316 25.5761C101.507 25.4895 101.669 25.3484 101.78 25.1704C101.892 24.9924 101.948 24.7854 101.943 24.5754C101.953 24.4432 101.933 24.3104 101.884 24.1872C101.834 24.0641 101.758 23.9538 101.659 23.8649C101.422 23.6909 101.146 23.5765 100.855 23.5314C100.522 23.4613 99.9414 23.3779 99.1509 23.2845C98.2481 23.1761 97.3556 22.9942 96.4823 22.7408C95.8309 22.5535 95.2421 22.1939 94.7778 21.7001C94.332 21.1725 94.103 20.4953 94.1374 19.8054C94.1287 19.0536 94.3627 18.319 94.8045 17.7106C95.2701 17.0782 95.9049 16.5903 96.6358 16.303C97.501 15.958 98.4264 15.789 99.3577 15.806C101.014 15.8216 102.349 16.1762 103.36 16.8701C103.846 17.1841 104.25 17.6106 104.536 18.1134C104.822 18.6162 104.983 19.1806 105.005 19.7587H101.836C101.811 19.5286 101.732 19.3073 101.607 19.1124C101.482 18.9174 101.314 18.7539 101.116 18.6346C100.616 18.3249 100.035 18.1727 99.4478 18.1977C98.9168 18.173 98.3893 18.2954 97.9233 18.5512C97.7494 18.6412 97.6034 18.7771 97.5011 18.944C97.3988 19.111 97.3441 19.3027 97.3429 19.4986C97.3353 19.6221 97.3596 19.7456 97.4133 19.8571C97.467 19.9687 97.5485 20.0646 97.6498 20.1357C97.8933 20.2938 98.1671 20.3995 98.4537 20.4459C98.7873 20.5059 99.3377 20.5793 100.122 20.656C101.763 20.8473 103.021 21.1986 103.898 21.7101C104.771 22.2238 105.208 23.1011 105.208 24.3486C105.22 25.1016 104.974 25.8359 104.511 26.43C104.003 27.0607 103.332 27.5396 102.57 27.8143C101.65 28.1547 100.675 28.3199 99.6946 28.3013C98.0067 28.3013 96.6347 27.9266 95.5784 27.1772C95.0762 26.8361 94.6629 26.3799 94.3728 25.8467C94.0827 25.3135 93.9242 24.7186 93.9105 24.1118H97.0561C97.0787 24.3702 97.1599 24.6202 97.2934 24.8426C97.4269 25.0651 97.6092 25.2544 97.8266 25.396Z" fill="#2E343F"/>
<path d="M112.897 28.2847C111.746 28.3107 110.606 28.0457 109.585 27.5141C108.655 27.0168 107.894 26.2554 107.397 25.3259C106.871 24.3189 106.607 23.196 106.629 22.0603C106.604 20.9212 106.868 19.7942 107.397 18.7847C107.899 17.857 108.665 17.0991 109.598 16.6066C110.628 16.0738 111.775 15.8088 112.934 15.836C114.559 15.836 115.884 16.2507 116.907 17.0802C117.953 17.945 118.63 19.1759 118.801 20.5226H115.335C115.22 19.9637 114.921 19.4598 114.485 19.0916C114.037 18.7279 113.473 18.5383 112.897 18.5579C112.498 18.5444 112.102 18.6253 111.74 18.794C111.378 18.9627 111.062 19.2144 110.816 19.5286C110.269 20.2562 109.993 21.1514 110.035 22.0603C109.993 22.9693 110.269 23.8645 110.816 24.5921C111.06 24.9088 111.376 25.163 111.738 25.334C112.1 25.5051 112.497 25.588 112.897 25.5761C113.485 25.5968 114.061 25.4036 114.518 25.0324C114.964 24.6486 115.261 24.1212 115.359 23.5414H118.791C118.635 24.9028 117.962 26.1521 116.91 27.0305C115.876 27.8666 114.538 28.2847 112.897 28.2847Z" fill="#2E343F"/>
<path d="M120.739 25.3259C120.196 24.3247 119.922 23.1993 119.945 22.0603C119.922 20.9214 120.196 19.796 120.739 18.7947C121.256 17.8592 122.038 17.0977 122.987 16.6065C124.039 16.0995 125.191 15.8361 126.358 15.8361C127.525 15.8361 128.677 16.0995 129.729 16.6065C130.678 17.0977 131.46 17.8592 131.977 18.7947C132.52 19.796 132.794 20.9214 132.771 22.0603C132.797 23.2038 132.523 24.3342 131.977 25.3393C131.461 26.2664 130.686 27.0224 129.745 27.5141C128.694 28.0212 127.542 28.2845 126.375 28.2845C125.208 28.2845 124.055 28.0212 123.004 27.5141C122.049 27.0256 121.26 26.2639 120.739 25.3259ZM129.389 22.0603C129.43 21.1455 129.14 20.2466 128.571 19.5286C128.292 19.2228 127.952 18.9785 127.573 18.8114C127.194 18.6443 126.784 18.558 126.37 18.558C125.956 18.558 125.546 18.6443 125.167 18.8114C124.788 18.9785 124.448 19.2228 124.168 19.5286C123.601 20.247 123.312 21.146 123.354 22.0603C123.312 22.9747 123.601 23.8736 124.168 24.5921C124.448 24.8979 124.788 25.1422 125.167 25.3093C125.546 25.4764 125.956 25.5627 126.37 25.5627C126.784 25.5627 127.194 25.4764 127.573 25.3093C127.952 25.1422 128.292 24.8979 128.571 24.5921C129.141 23.8746 129.432 22.9755 129.392 22.0603H129.389Z" fill="#2E343F"/>
<path d="M146.07 28.1412H143.115L142.805 26.6735C142.377 27.2037 141.831 27.6258 141.211 27.9057C140.59 28.1856 139.912 28.3154 139.232 28.2846C138.593 28.309 137.956 28.2053 137.358 27.9796C136.76 27.7539 136.213 27.4108 135.75 26.9704C134.86 26.0965 134.415 24.6332 134.415 22.5807V15.9794H137.751V22.1771C137.751 23.2845 137.944 24.1151 138.331 24.6755C138.533 24.9569 138.803 25.1819 139.116 25.3291C139.429 25.4762 139.774 25.5406 140.119 25.5161C140.494 25.5329 140.868 25.4565 141.206 25.2934C141.544 25.1304 141.837 24.886 142.057 24.5821C142.518 23.9583 142.744 23.0844 142.744 21.9669V15.9794H146.08L146.07 28.1412Z" fill="#2E343F"/>
<path d="M147.254 18.7947V15.9794H149.256V12.5671H152.591V15.9794H155.36V18.7947H152.591V24.1318C152.561 24.4628 152.658 24.793 152.861 25.0557C152.987 25.1616 153.133 25.2413 153.29 25.29C153.447 25.3387 153.612 25.3554 153.775 25.3393H155.5V28.1546H152.761C150.44 28.1546 149.28 26.9949 149.282 24.6755V18.7947H147.254Z" fill="#2E343F"/>
<path d="M22.8205 9L5.5 19V13L17.6282 6L22.8205 9Z" fill="#2E343F"/>
<path d="M29.7564 13V16.4615L8.5 28.7308L5.5 27V23.7436L26.9231 11.3718L29.7564 13Z" fill="#2E343F"/>
<path d="M12.6026 31.1026L29.7564 21.2051V27L17.6282 34L12.6026 31.1026Z" fill="#2E343F"/>
</g>
</g>
</svg>
