<svg width="25" height="24" viewBox="0 0 25 24" fill="none" xmlns="http://www.w3.org/2000/svg">
<g id="Social platforms logo" clip-path="url(#clip0_267_62309)">
<g id="Logo">
<path id="Vector" d="M24.2628 12.276C24.2628 11.4603 24.1967 10.6401 24.0556 9.83765H12.7368V14.4586H19.2185C18.9496 15.949 18.0853 17.2674 16.8199 18.1051V21.1035H20.6869C22.9577 19.0135 24.2628 15.9269 24.2628 12.276Z" fill="#272D37"/>
<path id="Vector_2" d="M12.7372 24.0002C15.9736 24.0002 18.703 22.9376 20.6916 21.1033L16.8246 18.1049C15.7487 18.8369 14.3598 19.2514 12.7416 19.2514C9.61095 19.2514 6.95654 17.1393 6.00412 14.2997H2.01367V17.3906C4.05078 21.4428 8.19997 24.0002 12.7372 24.0002V24.0002Z" fill="#272D37"/>
<path id="Vector_3" d="M5.99984 14.3002C5.49718 12.8099 5.49718 11.196 5.99984 9.70569V6.61475H2.01381C0.311804 10.0055 0.311804 14.0004 2.01381 17.3912L5.99984 14.3002V14.3002Z" fill="#272D37"/>
<path id="Vector_4" d="M12.7372 4.74954C14.448 4.72308 16.1015 5.36684 17.3405 6.54855L20.7666 3.12249C18.5972 1.08538 15.7179 -0.0345881 12.7372 0.000686596C8.19997 0.000686596 4.05078 2.5581 2.01367 6.61469L5.99971 9.70563C6.94772 6.86161 9.60654 4.74954 12.7372 4.74954V4.74954Z" fill="#272D37"/>
</g>
</g>
<defs>
<clipPath id="clip0_267_62309">
<rect width="24" height="24" fill="white" transform="translate(0.5)"/>
</clipPath>
</defs>
</svg>
