<svg width="33" height="32" viewBox="0 0 33 32" fill="none" xmlns="http://www.w3.org/2000/svg">
<g id="Icon">
<path id="Icon_2" d="M20.3976 9.45097L17.6477 4.66404C17.1371 3.77523 15.8563 3.77098 15.3398 4.65638L12.438 9.63087C12.0537 10.2898 11.4056 10.7525 10.6576 10.9021L6.69263 11.6951C5.66572 11.9005 5.26558 13.1553 5.984 13.9172L8.85177 16.9588C9.465 17.6092 9.71157 18.5236 9.50844 19.3941L8.2104 24.9572C7.94357 26.1007 9.17836 27.0058 10.1886 26.4072L15.1409 23.4725C15.9791 22.9758 17.0216 22.9758 17.8598 23.4725L22.8121 26.4072C23.8223 27.0058 25.0571 26.1007 24.7903 24.9572L23.4809 19.3454C23.2841 18.5018 23.5092 17.6152 24.0847 16.9678L26.956 13.7376C27.6401 12.9679 27.2307 11.7463 26.221 11.5443L22.1869 10.7375C21.4329 10.5867 20.7806 10.1178 20.3976 9.45097Z" stroke="#437EF7" stroke-width="2" stroke-miterlimit="10"/>
</g>
</svg>
