<svg width="33" height="32" viewBox="0 0 33 32" fill="none" xmlns="http://www.w3.org/2000/svg">
<g id="Icon">
<path id="Icon_2" d="M16.5002 30.6666C24.6003 30.6666 31.1668 24.1001 31.1668 15.9999C31.1668 7.89974 24.6003 1.33325 16.5002 1.33325M16.5002 30.6666C8.39999 30.6666 1.8335 24.1001 1.8335 15.9999C1.8335 7.89974 8.39999 1.33325 16.5002 1.33325M16.5002 30.6666C19.4457 30.6666 21.8335 24.1001 21.8335 15.9999C21.8335 7.89974 19.4457 1.33325 16.5002 1.33325M16.5002 30.6666C13.5546 30.6666 11.1668 24.1001 11.1668 15.9999C11.1668 7.89974 13.5546 1.33325 16.5002 1.33325M3.16683 10.6666H29.8335M3.16683 19.9999H29.8335" stroke="#437EF7" stroke-width="2" stroke-linecap="round"/>
</g>
</svg>
